<?xml version="1.0" encoding="UTF-8" standalone="no"?>
<!-- Created with Inkscape (http://www.inkscape.org/) -->

<svg
   xmlns:dc="http://purl.org/dc/elements/1.1/"
   xmlns:cc="http://creativecommons.org/ns#"
   xmlns:rdf="http://www.w3.org/1999/02/22-rdf-syntax-ns#"
   xmlns:svg="http://www.w3.org/2000/svg"
   xmlns="http://www.w3.org/2000/svg"
   xmlns:sodipodi="http://sodipodi.sourceforge.net/DTD/sodipodi-0.dtd"
   xmlns:inkscape="http://www.inkscape.org/namespaces/inkscape"
   width="200.8047mm"
   height="87.845612mm"
   viewBox="0 0 711.51273 311.26398"
   id="svg2"
   version="1.1"
   inkscape:version="0.91 r13725"
   sodipodi:docname="mw-alt-logo.svg"
   inkscape:export-filename="mw-alt-logo.png"
   inkscape:export-xdpi="90"
   inkscape:export-ydpi="90">
  <defs
     id="defs4">
    <style
       id="style4140"
       type="text/css">
    .fil0 {fill:black}
  </style>
    <clipPath
       clipPathUnits="userSpaceOnUse"
       id="clipPath4205">
      <rect
         style="opacity:1;fill:#000000;fill-opacity:0.53424659;fill-rule:nonzero;stroke:#ffffff;stroke-width:95.73326874;stroke-linecap:square;stroke-linejoin:miter;stroke-miterlimit:4;stroke-dasharray:none;stroke-opacity:1"
         id="rect4207"
         width="13958.518"
         height="6191.0146"
         x="100.14406"
         y="7414.8198" />
    </clipPath>
    <clipPath
       clipPathUnits="userSpaceOnUse"
       id="clipPath4243">
      <text
         xml:space="preserve"
         style="font-style:normal;font-variant:normal;font-weight:900;font-stretch:normal;font-size:9293.5859375px;line-height:125%;font-family:Roboto;-inkscape-font-specification:'Roboto, Heavy';text-align:start;letter-spacing:0px;word-spacing:0px;writing-mode:lr-tb;text-anchor:start;fill:#ffffff;fill-opacity:0.05479455;stroke:none;stroke-width:1px;stroke-linecap:butt;stroke-linejoin:miter;stroke-opacity:1"
         x="2909.4827"
         y="14951.821"
         id="text4245"
         sodipodi:linespacing="125%"
         transform="scale(1.111572,0.89962684)"><tspan
           sodipodi:role="line"
           id="tspan4247"
           x="2909.4827"
           y="14951.821">W</tspan></text>
    </clipPath>
  </defs>
  <sodipodi:namedview
     id="base"
     pagecolor="#ffffff"
     bordercolor="#666666"
     borderopacity="1.0"
     inkscape:pageopacity="0.0"
     inkscape:pageshadow="2"
     inkscape:zoom="0.50316073"
     inkscape:cx="458.43671"
     inkscape:cy="190.4139"
     inkscape:document-units="px"
     inkscape:current-layer="layer4"
     showgrid="false"
     inkscape:window-width="1280"
     inkscape:window-height="736"
     inkscape:window-x="0"
     inkscape:window-y="21"
     inkscape:window-maximized="1"
     fit-margin-top="0"
     fit-margin-left="0"
     fit-margin-right="0"
     fit-margin-bottom="0" />
  <metadata
     id="metadata7">
    <rdf:RDF>
      <cc:Work
         rdf:about="">
        <dc:format>image/svg+xml</dc:format>
        <dc:type
           rdf:resource="http://purl.org/dc/dcmitype/StillImage" />
        <dc:title />
      </cc:Work>
    </rdf:RDF>
  </metadata>
  <g
     inkscape:label="Layer 1"
     inkscape:groupmode="layer"
     id="layer1"
     transform="translate(-1.1453122,-371.43522)">
    <text
       transform="scale(1.0878073,-0.91928046)"
       sodipodi:linespacing="125%"
       id="text4199"
       y="-404.05035"
       x="-3.8307149"
       style="font-style:normal;font-variant:normal;font-weight:900;font-stretch:normal;font-size:476.26513672px;line-height:125%;font-family:Roboto;-inkscape-font-specification:'Roboto, Heavy';text-align:start;letter-spacing:0px;word-spacing:0px;writing-mode:lr-tb;text-anchor:start;fill:#037034;fill-opacity:1;stroke:none;stroke-width:1px;stroke-linecap:butt;stroke-linejoin:miter;stroke-opacity:1"
       xml:space="preserve"><tspan
         y="-404.05035"
         x="-3.8307149"
         id="tspan4201"
         sodipodi:role="line">W</tspan></text>
  </g>
  <g
     inkscape:groupmode="layer"
     id="layer4"
     inkscape:label="Layer 2"
     transform="translate(-1.1453122,-371.43522)">
    <g
       style="clip-rule:evenodd;fill:#04a34f;fill-opacity:1;fill-rule:evenodd;stroke:#d7b15f;stroke-opacity:1;image-rendering:optimizeQuality;shape-rendering:geometricPrecision;text-rendering:geometricPrecision"
       id="g4150"
       transform="matrix(0.05015105,0,0,0.05236628,107.00612,-21.682756)"
       clip-path="url(#clipPath4243)">
      <g
         id="podgląd"
         style="fill:#04a34f;fill-opacity:1;stroke:#d7b15f;stroke-opacity:1">
        <path
           id="path4143"
           d="m 7584,20338 c -5,-152 738,-354 822,-224 51,79 -484,274 -603,278 -119,5 -218,-20 -219,-55 z m -1541,-245 c -4,-124 56,-187 135,-141 78,46 144,145 147,219 2,75 -58,138 -135,141 -77,3 -143,-96 -147,-219 z m 977,58 c -5,-139 328,-320 593,-323 90,-1 45,98 -100,220 -299,252 -486,291 -493,102 z m 1939,-359 c -2,-67 256,-171 555,-325 299,-154 646,-405 769,-557 273,-336 412,-359 422,-69 4,119 19,247 -79,251 -98,4 -543,185 -876,436 -637,482 -785,463 -792,264 z m 711,28 c -3,-79 93,-148 212,-153 119,-5 180,58 136,139 -45,81 -140,150 -212,153 -72,3 -133,-60 -136,-139 z m -3411,-58 c -40,-61 144,-94 407,-72 264,21 480,64 481,95 4,108 -818,87 -889,-23 z m 2058,-188 c 145,-122 321,-225 391,-227 176,-7 1475,-872 1471,-991 -2,-53 151,-177 339,-275 188,-98 293,-89 294,-52 4,123 -528,757 -639,761 -60,2 -453,328 -804,577 -350,249 -646,227 -707,191 -61,-36 -149,2 -194,84 -45,83 -157,151 -248,152 -91,1 -47,-98 97,-220 z m -2602,80 c -135,-31 -248,-110 -250,-176 -2,-66 122,-91 277,-56 155,35 283,122 285,192 2,70 -12,120 -31,112 -19,-8 -146,-41 -281,-72 z m 1704,-112 c -3,-79 58,-147 134,-150 76,-3 141,59 144,139 3,79 -58,147 -134,150 -77,3 -141,-59 -144,-139 z m 369,-208 c -50,-122 -245,-166 -542,-122 -344,51 -395,35 -197,-63 256,-126 254,-135 -42,-203 -209,-48 -306,-6 -302,130 9,282 -671,229 -771,-60 -86,-249 -1518,-960 -1511,-753 2,69 489,251 795,398 560,269 735,619 476,629 -77,3 -265,-169 -315,-247 -50,-77 -224,-101 -358,-95 -134,5 -369,-99 -522,-232 -153,-133 -519,-414 -814,-625 -295,-211 -538,-452 -540,-535 -3,-83 228,45 512,285 284,240 556,393 604,340 47,-53 -42,-180 -198,-283 -402,-264 -790,-643 -954,-932 -241,-425 113,-293 472,176 183,239 620,590 971,781 351,191 749,374 855,452 106,78 277,151 380,163 103,12 440,48 749,80 555,58 1125,288 1306,527 132,175 421,-58 302,-243 -59,-91 -32,-114 66,-56 117,69 126,178 29,382 -157,332 -341,375 -452,104 z m -2844,42 c -53,-83 -187,-111 -296,-62 -110,49 -166,27 -125,-47 41,-74 -398,-210 -562,-257 -285,-82 -503,-496 -508,-649 -3,-90 557,205 807,425 100,88 374,239 609,336 235,97 452,189 454,249 5,163 -268,177 -379,5 z m 3708,-384 c 138,-185 132,-225 -29,-219 -109,4 -274,-66 -367,-155 -130,-125 -134,-271 179,-486 469,-320 616,-218 622,-22 3,78 -150,188 -340,246 -190,57 -185,31 -183,101 8,246 181,244 556,-156 208,-221 380,-331 383,-244 3,88 -163,299 -368,470 -205,171 -308,310 -228,310 80,-1 355,-209 612,-462 257,-254 394,-420 306,-371 -203,114 -384,-141 -194,-273 223,-155 415,-715 484,-1291 48,-400 77,-629 -49,-541 -128,89 -151,-20 -97,-450 39,-312 67,-712 62,-891 -5,-178 58,-327 139,-330 85,-3 115,118 70,286 -49,182 -11,162 94,158 207,-8 28,-1421 -205,-1646 -84,-81 -157,-285 -163,-453 C 9925,12258 9379,10860 8808,9728 8391,8901 7597,7994 7098,7920 6100,7773 5021,8550 4592,9718 c -270,737 -187,2252 144,2759 54,83 312,633 328,724 16,91 103,201 371,550 420,546 607,520 965,460 229,-38 423,29 507,20 153,-16 454,-635 445,-915 -3,-84 -184,61 -403,322 -390,465 -748,521 -607,96 40,-120 -7,-212 -106,-208 -98,4 -296,-96 -440,-222 -155,-135 -147,34 -144,131 3,91 21,47 177,140 156,93 286,222 288,287 2,65 -100,183 -264,73 -355,-238 -826,-1002 -721,-1193 116,-210 335,-12 254,230 -48,146 -7,188 127,128 110,-48 334,-49 436,70 268,311 1113,255 1094,-73 -8,-139 -15,-497 46,-867 156,-951 -379,-2262 -919,-2252 -62,1 -72,66 -22,143 50,78 25,143 -55,147 -80,3 -177,267 -216,586 -38,319 -128,582 -199,585 -71,3 -96,-57 -54,-132 42,-76 10,-176 -71,-224 -81,-48 -103,-165 -50,-261 147,-265 153,-537 11,-532 -70,3 -123,135 -117,293 5,159 -58,291 -141,294 -178,7 -53,-909 135,-992 67,-29 92,-99 56,-155 -36,-56 69,-289 232,-519 347,-486 968,-636 1432,-348 499,310 684,216 317,-161 -275,-282 -425,-326 -834,-244 -640,127 -1082,449 -1353,987 -439,945 -273,-652 1021,-1272 95,-10 252,14 436,-14 312,-47 547,106 1487,973 237,219 761,1189 1043,1932 87,228 69,243 -116,95 -120,-96 -221,-271 -225,-391 -9,-276 -877,-1734 -1029,-1727 -245,10 -240,417 6,473 262,60 826,1089 1119,2045 54,176 155,319 224,316 69,-3 86,-101 38,-218 -48,-117 -25,-216 52,-219 127,-5 333,533 428,1072 21,118 93,401 161,629 88,297 77,387 -40,318 -89,-53 -211,-351 -270,-664 -59,-312 -132,-457 -195,-494 -203,-119 -90,429 185,908 141,244 129,617 160,838 40,289 133,354 -20,524 -111,123 -197,343 -193,489 7,194 -67,247 -272,200 -201,-46 -278,7 -272,186 7,217 39,223 233,44 193,-178 215,-176 160,12 -36,120 -175,213 -309,206 -135,-7 -337,171 -454,400 -244,479 -890,672 -1682,638 -1188,-52 -2754,-1617 -2988,-2985 -52,-307 -39,-323 95,-111 168,267 60,521 182,516 62,-2 222,328 448,711 631,1073 1356,1550 2392,1574 821,19 886,78 1327,-428 252,-289 454,-655 449,-813 -7,-219 -114,-134 -447,355 -363,533 -543,576 -989,632 -295,37 -683,35 -863,-4 -415,-91 -1265,-805 -1797,-1511 -510,-676 -554,-1011 -61,-459 199,223 363,452 365,509 6,194 964,1115 1055,1014 50,-55 93,-28 96,61 8,234 950,349 1173,143 101,-94 298,-130 437,-81 173,61 219,38 146,-75 -126,-195 -605,-203 -665,-11 -57,181 -1261,-186 -1551,-480 -216,-218 -27,-188 303,-23 562,281 1122,278 1407,-9 163,-165 259,-195 262,-84 3,96 67,132 142,81 75,-52 149,-82 147,-161 -3,-79 -66,-102 -141,-50 -147,102 -198,-103 -63,-253 177,-197 453,235 325,508 -220,468 1,426 250,-48 131,-249 318,-456 416,-459 98,-4 177,-72 174,-151 -3,-79 221,-364 302,-367 85,-3 -44,336 -89,503 -43,161 -17,289 59,286 182,-7 338,-825 276,-1454 -38,-557 -83,-572 -329,-782 -82,57 -143,-98 -152,-382 -18,-599 -645,-2123 -1015,-2567 l -280,-336 240,496 c 132,273 295,593 363,712 143,251 338,812 479,1749 196,1299 -482,82 -435,1839 7,258 -50,471 -127,474 -77,3 -97,-71 -46,-165 61,-111 34,-129 -78,-51 -131,91 -146,36 -64,-228 135,-434 -45,-2460 -214,-2622 -71,-68 -93,61 -51,297 115,654 -217,341 -240,-263 -8,-214 -18,-165 -82,-460 -134,-611 -30,-717 185,-188 79,195 240,351 357,347 161,-6 218,162 236,704 13,392 156,771 237,819 136,80 5,-798 -187,-1617 -93,-397 -523,-1194 -927,-1718 -272,-353 -296,-434 -109,-368 149,53 204,29 146,-61 -137,-212 -1041,-274 -1313,-101 -183,116 -147,103 209,79 524,-35 973,475 1465,1393 335,623 362,723 205,729 -58,2 -198,-194 -311,-435 -153,-327 -235,-389 -319,-240 -92,163 -117,160 -138,-16 -14,-118 -19,-269 -10,-334 9,-65 -123,-305 -292,-533 -249,-335 -272,-246 -648,-204 -639,70 -344,4 -598,345 -203,273 -120,270 366,-16 347,-204 408,-203 610,12 398,424 631,1069 718,1987 61,643 103,920 -18,925 -129,5 -129,46 -3,167 126,122 213,117 359,-17 744,-334 -331,1123 -87,778 -99,242 -248,448 -313,552 -135,216 -1410,470 -1420,283 -12,-228 -828,-1023 -937,-913 -59,60 -72,38 -28,-49 44,-87 -74,-286 -199,-514 -298,-540 -365,-811 -458,-1843 -144,-1608 750,-3122 2018,-3508 478,-146 672,-132 1197,85 345,142 585,280 623,238 38,-42 42,-92 10,-110 -680,-388 -993,-556 -1571,-533 -609,24 -763,99 -1316,642 -426,418 -701,598 -706,444 -4,-125 401,-534 812,-840 704,-524 796,-553 1586,-510 676,37 861,0 955,-189 105,-212 152,-211 500,6 211,132 416,203 456,159 103,-114 813,343 819,513 17,501 -270,-322 -590,34 -194,216 -158,293 411,882 486,503 712,907 1025,1831 221,652 419,1341 422,1435 3,95 58,170 122,168 162,-7 122,-551 -51,-762 -79,-96 -196,-368 -152,-370 45,-2 41,-99 -119,-450 -273,-600 -349,-863 -51,-818 118,18 165,-12 -63,-621 -105,-280 -103,-281 123,-13 260,307 313,729 111,870 -86,60 -60,233 71,475 281,518 571,1554 614,2170 20,280 92,507 162,504 147,-6 -51,-1393 -274,-1932 -73,-178 -158,-394 -204,-581 -29,-118 61,-50 3,-186 -172,-408 54,-390 -30,-637 -185,-543 392,171 879,1149 682,1370 495,1480 -211,124 -386,-861 -440,-815 -236,-144 439,937 227,1116 327,1386 44,117 303,234 392,509 122,377 146,402 98,101 -35,-219 -14,-432 45,-473 163,-113 612,1312 663,2412 -306,2472 -651,698 -486,1799 5,166 -194,315 -380,588 -186,273 -289,493 -227,489 194,-12 400,-221 487,-495 48,-151 154,-224 247,-169 150,88 -958,1399 -1694,2003 -264,216 -265,214 -38,-84 294,-385 174,-422 -120,-292 -251,111 -64,-197 306,-677 111,-144 158,-303 105,-354 -53,-51 -190,36 -303,193 -231,319 -217,251 116,-585 285,-715 285,-929 287,-1530 1,-258 130,-587 198,-590 179,-7 43,1353 -186,1853 -176,385 -171,448 50,664 229,224 230,250 7,435 -291,241 -300,384 -22,373 115,-5 206,-100 202,-212 -4,-112 70,-245 164,-295 136,-72 135,-107 -4,-168 -125,-55 -80,-216 158,-565 211,-309 299,-586 239,-756 -78,-221 -67,-231 63,-58 136,182 157,176 151,-42 -4,-139 -69,-250 -146,-247 -76,3 -141,-53 -144,-125 -2,-72 106,-118 240,-102 135,16 163,3 64,-28 -256,-79 -257,-2051 -1,-2061 239,-9 219,-485 -6,-394 -95,38 -256,-127 -359,-371 -183,-429 -185,-424 -93,206 92,626 88,635 -127,294 -214,-340 -243,-189 -170,506 107,1012 161,933 270,357 148,-1112 118,-184 79,1007 -15,1268 -62,1565 -288,1816 l -270,299 146,-439 c 244,-736 327,-1978 135,-2046 -92,-32 -190,-364 -216,-736 -27,-372 -73,-773 -104,-891 -30,-118 -109,-423 -175,-679 -66,-255 -172,-462 -235,-460 -63,3 -44,192 42,421 86,229 141,601 123,825 -25,301 -106,132 -310,-642 -152,-578 -228,-795 -188,-868 40,-73 -24,-522 -105,-519 -81,3 -155,-217 -164,-490 -9,-273 -74,-530 -143,-570 -70,-41 -175,-248 -234,-460 -139,-500 -1337,-2092 -1810,-2331 -523,-264 -677,-6 -164,282 235,132 398,294 362,361 -36,66 31,117 151,112 119,-5 219,40 222,100 3,59 216,328 473,598 258,269 496,585 530,701 34,116 180,599 324,1074 144,474 370,946 345,1035 -25,89 -92,269 -9,317 82,48 152,157 155,241 3,97 -74,90 -210,-18 -118,-94 -218,-273 -222,-396 -4,-124 -168,-594 -345,-949 -245,-186 -420,-676 -452,-930 -166,-539 823,1327 483,342 -61,-196 -192,-483 -291,-638 -149,-232 -203,-245 -303,-73 -147,251 -13,504 621,1730 70,135 152,605 156,741 5,137 170,375 367,529 255,199 391,478 469,961 68,421 57,683 -29,687 -77,3 -143,-108 -147,-247 -22,-751 -94,-1045 -305,-1247 -128,-124 -270,-184 -314,-135 -45,50 8,142 116,206 427,335 498,2241 111,2057 -96,-16 -173,36 -170,115 3,79 67,142 144,139 77,-3 87,339 92,505 14,409 -246,1637 -419,1878 -77,107 -83,172 -13,145 125,-49 200,53 207,284 5,141 -1051,906 -1425,1064 -221,93 -235,75 -91,-117 l 0,-1 z m 4186,-4099 c 53,-95 32,-331 -47,-525 -79,-194 -107,-393 -62,-443 277,-309 -691,208 -81,567 80,47 110,148 68,225 -42,77 -145,100 -228,51 -91,-53 -113,-10 -56,108 52,108 137,309 189,446 52,137 122,248 156,246 34,-1 40,-115 14,-253 -43,-41 10,-355 48,-423 z M 9327,9361 c 82,-84 34,-95 -123,-30 -190,79 -237,51 -184,-109 42,-126 -112,-393 -371,-643 -559,-538 -686,-431 -215,181 197,256 406,591 465,745 60,157 148,217 201,137 52,-79 154,-206 227,-281 z M 9006,7556 c 37,-1 102,-116 56,-186 -45,-70 -199,-91 -342,-46 -143,45 -305,13 -359,-72 -54,-84 -173,-149 -264,-143 -91,5 -5,131 192,278 197,148 367,291 468,248 101,-42 213,-78 249,-80 z M 7459,18676 c -50,-78 38,-146 196,-152 158,-6 289,54 291,133 3,79 -85,148 -196,152 -110,4 -241,-55 -291,-133 z m 4344,-106 c 93,-125 255,-230 360,-234 105,-4 174,-65 153,-135 -41,-132 537,-759 706,-765 172,-7 -859,1137 -1128,1250 -221,93 -234,76 -91,-116 z m -5056,-164 c -136,-211 -94,-230 726,-341 787,-106 909,-65 423,143 -644,275 -1054,345 -1149,198 z m -1014,-82 c -175,-65 -174,-176 -175,-218 -5,-158 511,-89 778,104 324,235 -78,309 -603,114 z m -743,-491 c -196,-227 -50,-282 257,-96 117,71 140,153 58,210 -74,52 -216,0 -315,-114 z m 905,-25 c -232,-91 -637,-339 -899,-552 -287,-232 -487,-270 -466,-149 19,111 31,323 27,472 -6,227 -43,242 -229,94 -165,-132 -180,-205 -58,-290 115,-80 43,-221 -239,-473 -221,-197 -357,-361 -302,-363 55,-2 -41,-177 -214,-389 -264,-323 -735,-1210 -741,-1396 -1,-30 60,-57 135,-60 75,-3 182,160 238,362 56,202 334,694 617,1094 637,900 601,862 700,752 45,-50 -130,-392 -388,-759 -597,-849 -1053,-1887 -832,-1895 62,-2 423,738 518,1062 23,78 166,310 318,515 152,205 277,416 279,469 6,182 457,474 578,390 67,-46 284,38 482,188 392,296 668,345 660,117 -5,-161 487,-137 660,32 61,60 -14,93 -168,73 -154,-20 -278,27 -275,105 5,151 54,164 703,180 365,9 383,28 144,145 -230,113 -201,134 179,127 249,-4 455,62 458,148 6,184 -878,58 -957,-136 -28,-69 -186,-119 -352,-111 -222,10 -251,45 -109,131 332,201 -23,288 -465,115 z m 270,-232 c 67,-121 -195,-272 -1134,-658 -78,-32 14,105 205,305 190,199 394,329 453,288 59,-41 148,-10 199,69 115,179 177,178 277,-4 z m 2565,26 c 239,-209 432,-477 428,-596 -5,-144 79,-191 253,-141 202,58 289,-33 390,-403 106,-390 135,-417 155,-146 14,182 -56,510 -156,728 -224,489 -746,1039 -754,794 -3,-104 -75,-126 -176,-56 -424,298 -531,160 -140,-181 z m 721,-298 c 180,-274 177,-281 -42,-89 -130,114 -235,275 -232,358 3,83 22,123 42,89 21,-34 125,-195 232,-358 z m 919,242 c -61,-219 -93,-504 -14,-593 78,-87 134,-219 129,-421 -6,-202 47,-467 117,-589 220,-381 184,589 -39,1073 -158,342 -33,447 111,532 252,149 -143,577 -304,-2 z m -2458,101 c -3,-79 -85,-141 -184,-137 -212,8 -264,-557 -55,-597 79,-15 206,-40 282,-54 313,-60 766,-406 758,-643 -10,-292 165,-328 580,-118 212,107 264,105 191,-9 -108,-167 83,-1093 292,-1340 81,-96 101,-63 54,91 -40,132 -85,587 -161,1080 -77,498 -187,823 -247,731 -82,-127 -130,-126 -203,6 -52,95 -177,144 -277,109 -100,-35 -316,75 -480,246 -224,232 -342,188 -427,57 -80,-124 -139,-128 -203,-12 -49,90 -37,161 28,159 65,-3 132,125 148,283 17,158 3,289 -30,290 -34,1 -63,-63 -66,-142 l 0,2 z m 1269,-1447 c -55,-85 -135,-61 -203,61 -180,318 -127,469 92,266 111,-102 161,-249 111,-326 z m -994,1348 c -4,-106 591,-567 721,-579 55,-5 70,81 34,191 -66,200 -749,543 -754,388 z m -1199,-442 c -50,-78 -28,-143 48,-146 77,-3 180,58 230,135 50,77 28,143 -48,146 -77,3 -180,-58 -230,-135 z m 3793,2 c -3,-79 56,-187 131,-239 75,-52 138,-30 141,50 3,79 -56,187 -131,239 -75,52 -138,30 -141,-50 z m -8432,-616 c -354,-396 -50,-439 28,-393 78,46 775,1213 778,1288 3,75 -180,22 -256,25 -77,3 -546,-796 -550,-920 z m 1244,435 C 2384,15358 2097,14880 2357,14870 c 70,-3 257,75 401,367 29,58 46,274 74,329 114,220 220,400 255,430 246,212 899,1149 843,1211 -36,40 -188,-86 -337,-280 z m 9377,100 c -79,-117 410,-913 461,-869 6,6 -181,1379 -228,700 -10,-144 -173,84 -221,153 -5,8 -10,13 -12,16 z m -7460,-366 c -98,-114 -234,-170 -300,-124 -66,46 -124,-17 -128,-141 -10,-295 189,-313 678,92 229,189 172,371 86,374 -86,4 -238,-87 -336,-202 z m 7207,11 c -1,-30 270,-492 383,-597 172,-159 13,201 -53,402 -68,205 -325,357 -330,195 z m -1771,-273 c 161,-680 232,-1589 87,-1488 -83,58 -128,251 -120,489 8,238 -93,231 -156,194 -194,-114 -52,-1098 160,-1106 106,-4 189,-137 184,-296 -5,-159 42,-290 105,-293 112,-4 131,1222 28,1803 -28,160 -51,437 -51,615 0,179 -67,328 -148,331 -82,3 -121,-109 -88,-249 z m -8162,90 c -53,-51 -98,-159 -101,-241 -3,-90 62,-84 165,15 94,90 139,199 101,241 -38,43 -113,36 -165,-15 z m 1368,-997 c -220,-325 -403,-697 -407,-826 -4,-129 -53,-279 -108,-332 -55,-53 -118,-200 -141,-326 -63,-360 300,59 690,910 196,429 345,739 498,872 216,205 410,551 84,249 -106,4 -396,-222 -616,-547 z m -1835,245 c -50,-78 -24,-143 57,-147 81,-3 149,59 152,138 3,79 -23,145 -57,147 -34,1 -102,-61 -152,-138 z m 10912,-394 c -8,-253 59,-736 185,-540 47,72 -52,959 -128,1012 -76,53 -53,-348 -57,-471 z m -11333,132 c -46,-72 -22,-174 54,-227 76,-53 142,5 146,129 8,253 -74,294 -200,99 z m 4260,-387 c -862,-134 -1156,-544 -1678,-1522 -176,-305 -408,-423 -455,-337 -145,264 -312,183 -394,-193 -43,-197 -25,-360 41,-362 224,-9 -103,279 195,267 176,-7 79,-198 -111,-666 -81,-200 -78,-323 -196,-319 -164,6 -196,-86 -134,-392 44,-220 133,-424 197,-453 188,-85 121,-153 -88,-145 -202,8 -365,308 -350,859 5,179 -53,327 -129,330 -76,3 -121,-109 -100,-249 182,-1216 239,-1345 480,-1290 141,32 243,-25 241,-135 -7,-308 567,-1729 700,-1734 186,-7 154,227 -58,423 -172,160 -412,1201 -298,1293 27,22 -43,105 -155,184 -117,83 -135,143 -41,141 94,-2 163,195 163,465 -32,1208 560,2348 1318,3075 194,187 326,356 556,470 258,128 522,54 823,77 808,121 969,-972 1174,-655 46,72 -81,233 -265,453 -183,220 -284,399 -223,398 60,-1 18,65 -94,146 -257,186 -202,193 -1116,-130 z M 3698,11337 c -42,-98 -71,-15 -64,183 7,198 41,278 76,177 35,-100 30,-263 -12,-360 z m -2039,3354 c -191,-470 -440,-1675 -279,-1681 127,-5 596,1885 494,1999 -33,36 -130,-107 -215,-318 z m 6957,-131 c -135,-230 37,-1195 215,-1202 134,-5 502,-79 433,213 -52,220 -411,655 -377,746 70,188 -174,407 -271,243 z m 4657,-202 c -91,-269 -318,-1293 -341,-1538 -33,-358 -575,-1816 -949,-2526 -193,-367 -644,-985 -1002,-1373 -358,-388 -651,-785 -651,-881 0,-97 288,138 642,521 353,383 641,619 639,525 -2,-95 -67,-210 -145,-255 -78,-46 -145,-153 -147,-237 -3,-97 74,-90 209,18 118,94 218,264 222,378 4,114 58,172 121,128 63,-44 262,172 443,479 181,307 377,557 435,554 59,-2 195,153 302,344 221,393 104,67 517,825 114,208 146,381 71,384 -74,3 -163,-29 -215,-166 -129,-338 -1696,-2378 -1769,-2296 -32,36 69,244 226,462 156,218 396,574 532,789 137,215 298,357 358,315 61,-42 213,272 321,602 108,331 269,646 358,701 116,71 112,102 -15,109 -164,9 -312,-237 -542,-899 -51,-148 -122,-237 -157,-198 -35,39 81,580 258,1201 177,621 454,1497 489,1793 63,532 -93,587 -211,241 z m -11112,274 c -51,-49 -96,-224 -100,-389 -6,-248 17,-264 136,-90 120,175 107,209 173,-77 l 79,-346 245,277 c 237,408 255,549 73,556 -77,3 -143,-96 -147,-219 -4,-124 -70,-182 -146,-129 -76,53 -103,151 -60,217 96,149 -125,322 -253,199 z m 857,-547 c -65,-195 -217,-612 -250,-872 -22,-178 -72,-322 -110,-320 -38,1 -106,-516 -151,-1149 -45,-633 -31,-1153 31,-1155 62,-2 139,444 172,992 53,878 283,1686 545,2325 46,112 14,207 -70,210 -85,3 -159,-10 -166,-30 z m -786,-707 c -36,-138 -31,-479 10,-758 41,-282 87,-372 103,-202 16,168 74,507 131,753 106,466 -125,664 -243,208 z m 1020,-148 c -94,-195 -117,-357 -51,-360 116,-4 344,579 262,670 -22,25 -117,-115 -211,-310 z m -1426,350 c -37,-214 -63,-545 -93,-723 -73,-435 -56,-536 71,-418 92,86 149,376 127,645 -12,139 -14,345 -16,507 -4,334 -33,312 -89,-10 z m 3998,-538 c -377,-48 -309,-588 -151,-692 75,-52 68,-150 41,-342 -36,-258 125,-348 298,-326 129,17 132,70 185,-26 239,-434 -503,-32 -95,-894 221,-467 320,-456 587,68 912,1452 -427,2528 -174,2068 82,-148 -304,-471 -511,-463 -209,8 -63,253 168,335 116,41 138,175 140,246 76,580 -280,-346 -486,24 z m 823,-1500 c -124,-975 -285,-1131 -463,-449 -67,259 -40,307 130,232 159,-70 218,-3 227,257 16,470 -149,663 -411,411 -390,-107 -230,303 258,284 337,-13 347,-42 259,-735 z m 6796,1082 c 43,41 188,379 244,754 66,441 39,927 19,951 -70,78 -691,-2117 -263,-1705 z M 3063,12524 c -8,-253 74,-294 200,-99 46,72 22,174 -54,227 -76,53 -142,-5 -146,-128 z m -1821,-282 c -9,-269 -11,-1024 70,-976 149,88 193,1165 38,1337 -51,57 -100,-106 -109,-361 z m 3714,104 c 41,-74 9,-155 -72,-179 -169,-51 -328,-1328 -221,-1634 -8,-178 81,-500 160,-503 88,-3 136,342 124,897 -13,612 48,1005 191,1219 187,282 185,317 -23,326 -128,5 -200,-52 -159,-126 z M 786,11732 c 87,-137 259,-72 160,416 -37,186 -70,473 -124,421 -50,-169 -113,-718 -37,-837 z m 1161,406 c -11,-152 19,-238 67,-192 48,46 57,170 20,276 -41,117 -75,84 -87,-84 z m 174,-344 c -66,-136 -136,-527 -155,-869 -21,-374 -117,-671 -241,-746 -171,-103 -165,-127 37,-136 219,-11 302,-174 244,-481 -11,-59 49,-110 134,-113 85,-3 119,99 77,227 -43,128 -110,391 -150,585 254,163 369,211 242,479 -88,185 -118,553 -67,818 102,534 62,613 -120,238 z m 2979,-534 c -30,-280 175,-326 348,-159 57,55 133,508 100,731 -28,184 -154,149 -215,152 -102,4 -62,-605 -233,-723 z m -4316,-99 c -58,-603 -23,-989 103,-1135 59,-69 88,190 65,575 -54,899 -116,1105 -168,561 z m 793,-12 c -65,-225 -87,-445 -48,-488 108,-121 261,338 211,634 -33,194 -75,155 -163,-146 z m 1228,-140 c -50,-77 -24,-143 57,-147 81,-3 150,59 152,138 3,79 -23,145 -57,147 -34,1 -102,-61 -152,-138 z m -2561,356 c -2,-75 45,-764 120,-817 75,-52 128,59 132,182 4,124 -32,761 -108,764 -77,3 -141,-56 -144,-130 z m 941,-878 c -8,-242 41,-408 108,-369 115,67 78,803 -40,807 -29,1 -60,-196 -68,-439 z m 1377,-94 c -78,-434 -5,-850 181,-1250 247,-532 262,-631 96,-624 -64,2 -215,222 -307,444 -95,230 -196,328 -235,227 -100,-259 437,-973 609,-808 90,86 202,2 315,-237 96,-204 227,-373 291,-375 181,-7 144,230 -66,425 -263,244 -614,1122 -662,1655 -36,412 -183,762 -222,543 z m 398,-363 c 203,-1242 1470,-3069 2327,-3400 581,-224 532,-340 -81,-188 -244,61 -707,392 -941,669 -432,510 -639,627 -648,367 -3,-79 89,-148 204,-152 115,-4 207,-73 204,-152 -13,-391 -608,92 -747,608 -43,160 -170,295 -283,299 -271,11 -98,-346 489,-1011 358,-404 391,-491 171,-438 -286,68 -1163,1368 -1497,2218 -106,271 -227,460 -268,421 -41,-39 12,-259 117,-489 105,-230 203,-483 218,-563 14,-80 193,-371 367,-602 174,-231 315,-502 311,-603 -3,-100 132,-259 302,-354 169,-94 465,-380 727,-562 1236,-840 -1223,1261 959,-191 487,-323 792,-585 677,-582 -184,5 -185,-11 -4,-142 170,-123 157,-149 -75,-151 -229,-2 -210,-38 101,-195 209,-106 332,-239 273,-295 -59,-57 2,-64 136,-17 149,53 240,17 237,-94 -5,-132 223,-168 866,-137 1694,82 -545,-386 498,-427 14,-1 1377,415 1434,560 115,290 98,299 -308,170 -327,-104 -454,-92 -533,51 -71,129 -229,157 -505,90 -387,-94 -1177,-39 -1880,130 -110,27 -67,318 80,544 59,90 30,203 -65,251 -95,48 47,66 314,41 319,-31 473,-89 454,27 -17,102 121,171 327,163 202,-8 317,-75 265,-155 -50,-77 -3,-144 104,-148 290,-11 1802,583 2027,762 114,91 193,96 190,13 -4,-129 -632,-462 -1561,-828 -301,-119 -271,-129 203,-70 306,38 643,154 750,256 107,103 259,184 339,181 80,-3 462,250 851,562 388,312 737,534 774,492 87,-97 -1257,-1211 -1453,-1204 -80,3 -222,-68 -314,-157 -246,-237 -1166,-503 -1678,-485 -244,8 -485,-48 -535,-125 -220,-342 1833,88 2587,541 798,480 2373,2052 2382,2314 5,158 -76,125 -280,-114 -158,-185 -354,-412 -436,-505 -82,-93 -245,-127 -363,-75 -133,59 -328,-136 -636,-422 -272,-254 -492,-394 -489,-312 3,82 199,315 435,517 237,203 360,494 363,578 3,89 124,109 290,47 218,-81 416,26 837,453 304,308 588,519 632,470 44,-49 9,-171 -78,-271 -87,-100 -131,-267 -99,-370 35,-113 135,-32 251,202 106,214 235,388 286,386 51,-2 305,280 565,627 259,347 428,633 375,635 -112,4 -571,-480 -889,-938 -120,-173 -274,-276 -342,-229 -68,47 25,277 207,511 664,853 728,957 598,962 -73,3 -334,-263 -579,-591 -495,-661 -963,-1151 -1492,-1564 l -351,-274 350,382 c 193,210 309,427 260,482 -50,55 -423,-255 -829,-691 C 9307,6531 8499,5973 8341,6448 c -45,136 -7,218 95,200 94,-16 270,-26 390,-21 296,11 1425,1084 1394,1294 -14,92 -452,284 -384,470 212,581 234,644 -227,126 -1158,-1184 1402,189 -99,-1287 -604,-464 -832,-543 -823,-284 3,86 -133,60 -310,-59 -174,-116 -631,-242 -1016,-280 -506,-49 -625,-99 -429,-179 149,-61 459,-64 689,-5 307,78 470,47 618,-117 121,-134 138,-221 43,-217 -87,3 -179,81 -205,173 -36,125 -123,129 -350,14 -167,-84 -526,-144 -799,-134 -273,11 -498,-45 -501,-125 -3,-79 -151,-52 -225,-49 -313,-72 -719,192 -353,182 101,-3 -3,125 107,231 170,163 139,207 -210,293 -421,105 -1283,711 -1464,1026 -56,98 -176,267 -266,377 -183,222 -493,806 -489,921 1,41 65,72 142,68 77,-3 137,-87 133,-187 -11,-330 1195,-1639 1736,-1895 692,-327 2502,-325 2031,2 -91,63 -353,67 -582,9 -1016,-259 -2332,568 -2902,1812 -131,287 -267,394 -449,352 -187,-43 -294,51 -381,331 -66,215 -177,522 -245,684 -97,231 -109,201 -52,-142 z M 5377,5984 c 420,-360 115,-256 -476,163 -297,210 -675,441 -753,444 -78,3 -139,101 -135,218 7,206 563,-137 1364,-825 z M 3324,9943 c 79,-241 245,-633 305,-635 145,-6 86,251 -90,692 -209,524 -389,476 -216,-57 z M 277,9881 c 40,-121 168,-223 284,-228 172,-7 180,33 45,215 -91,123 -219,225 -284,228 -65,3 -85,-94 -45,-215 z m 1100,-399 c 69,-491 275,-1025 453,-1177 49,-42 97,-141 107,-221 10,-80 186,-479 363,-843 235,-485 585,-856 1311,-1387 545,-398 1153,-784 1263,-787 191,-5 -240,327 -828,639 -151,80 -550,418 -888,750 -563,554 -825,1035 -1700,3162 -140,341 -146,331 -80,-136 z m 277,283 c -46,-72 -22,-174 54,-227 76,-53 142,5 146,129 9,253 -74,294 -200,98 z m 8516,-473 c -127,-310 -107,-1081 67,-819 174,263 312,1041 153,1047 -68,3 -167,-100 -220,-228 z M 874,9542 c -3,-74 83,-264 190,-422 164,-242 197,-250 207,-53 7,129 -79,319 -190,422 -112,103 -205,127 -207,53 z M 159,9014 c -9,-257 344,-1037 616,-1362 92,-110 165,-289 161,-399 -4,-109 100,-266 231,-349 131,-82 197,-190 146,-238 -131,-126 -750,600 -679,796 33,90 -40,168 -161,173 -121,5 -218,73 -216,153 3,79 -65,147 -151,150 -233,9 473,-995 1365,-1942 789,-837 935,-1070 658,-1059 -81,3 -917,1008 -1029,1147 -490,603 -849,926 -978,881 -170,-60 -165,-96 24,-216 125,-79 608,-572 1074,-1095 605,-681 914,-945 1025,-838 111,107 218,80 375,-95 247,-275 337,-308 343,-124 4,131 -784,1017 -1367,1530 -186,164 -293,342 -237,396 127,123 1475,-1188 1475,-1433 0,-99 147,-186 327,-193 405,-16 1290,-519 1192,-671 -67,-104 653,-391 1424,-568 181,-42 367,-121 412,-176 45,-55 -123,-52 -374,8 -317,75 -429,59 -366,-55 162,-294 2914,2 4324,466 232,77 762,350 1176,607 731,392 -739,-1137 -2900,-1290 -678,-122 -1045,-234 -815,-250 229,-15 828,54 1329,154 502,100 990,188 1087,195 96,7 176,67 179,133 2,66 82,118 178,114 341,-12 676,400 869,185 62,-69 102,-139 -209,-267 -311,-128 -568,-284 -570,-345 -2,-62 315,30 704,205 389,175 710,384 712,465 3,81 -55,112 -128,69 -73,-43 -169,-10 -215,72 -45,82 -26,148 44,145 176,-7 990,846 995,1009 0,7 -761,-19 -998,-186 -923,-651 -2682,-1236 -3931,-1308 -358,-21 -715,-75 -794,-122 -79,-46 -141,-16 -138,68 3,84 -89,156 -204,161 -115,4 -207,73 -204,152 6,168 30,168 788,-16 466,-113 562,-100 508,65 -37,112 -170,197 -295,190 -729,-44 -1269,75 -1263,277 9,279 -187,284 -423,10 -133,-155 -227,-170 -331,-53 -105,117 -88,196 59,282 157,92 109,148 -202,238 -907,263 -3176,2253 -3421,2997 -174,528 -114,728 95,316 227,-447 261,-310 53,212 -110,275 -184,329 -272,198 -96,-143 -147,-135 -246,38 -68,119 -170,174 -225,121 -55,-53 -24,-199 68,-323 93,-125 130,-225 84,-223 -47,2 19,-143 146,-321 377,-528 1799,-2137 1802,-2037 2,51 79,21 172,-67 409,-384 1291,-974 1476,-981 201,-8 288,-298 88,-294 -306,6 -1986,1159 -2547,1744 -759,708 -1701,2386 -1455,2716 4,113 -356,480 -431,532 -75,52 -5,-342 -10,-474 z M 5666,4023 c 159,-115 120,-145 -179,-135 -211,7 -381,78 -378,157 6,182 290,171 557,-22 z m 7284,4374 c -139,-147 -221,-268 -183,-269 38,-2 -194,-232 -516,-512 -322,-280 -783,-806 -1113,-1100 -330,-294 -1015,-774 -1523,-1067 -973,-561 -1019,-739 -70,-270 1015,501 1196,619 1106,718 -49,54 -28,96 46,94 74,-3 194,-72 268,-153 88,-98 398,42 913,411 429,308 730,674 758,745 28,71 107,90 176,43 68,-48 129,58 135,235 l 11,322 -386,-335 c -212,-184 -571,-622 -884,-904 -314,-282 -377,-238 -440,-194 -98,68 513,852 670,846 30,-1 291,245 580,548 289,303 561,525 604,495 44,-30 94,101 111,291 17,190 22,341 11,335 -11,-6 -134,-131 -273,-278 z M 6304,6452 c -3,-79 58,-147 134,-150 77,-3 141,59 144,139 3,79 -58,147 -134,150 -77,3 -141,-59 -144,-139 z m 5825,-354 c -188,-140 -785,-539 -1329,-886 -543,-347 -898,-632 -788,-635 110,-2 615,265 1123,593 952,672 845,342 902,335 32,-4 150,-39 457,594 135,316 58,316 -366,-2 z M 209,6268 c -10,-189 919,-1283 1557,-1826 447,-381 611,-673 368,-656 -57,4 -487,413 -926,864 -439,451 -822,798 -851,770 -101,-97 964,-1317 1156,-1325 107,-4 156,-66 110,-138 -46,-72 41,-177 193,-234 153,-57 275,-164 273,-238 -2,-74 79,-138 181,-142 102,-4 488,-187 857,-407 387,-230 595,-416 391,-362 -709,190 -1681,819 -2250,1413 -1435,1496 -166,-113 -167,-143 -3,-81 -76,-98 -162,-38 -97,68 -122,45 -63,-61 52,-94 239,-211 387,-217 149,-6 268,-70 266,-142 -4,-110 1263,-748 2164,-1075 133,-48 236,-203 230,-344 -9,-209 -33,-217 -130,-46 -65,116 -336,295 -514,330 -178,35 -713,271 -1189,524 -477,253 -848,396 -826,317 22,-79 91,-129 152,-112 61,18 162,-62 225,-176 127,-231 1374,-842 1769,-858 138,-6 212,-72 164,-147 -48,-75 82,-188 290,-251 240,-72 400,-54 437,51 62,173 903,1090 886,563 -3,-81 137,-116 311,-79 174,38 564,-7 868,-100 l 552,-168 -729,76 c -667,70 -982,-51 -565,-217 95,-38 16,-35 -174,7 -252,54 -756,-137 -650,-257 21,-24 1652,-174 1740,-178 87,-3 197,89 245,206 48,117 148,170 223,118 84,-58 62,-140 -56,-213 -322,-197 1174,71 2403,431 39,11 325,128 636,259 887,373 351,406 -627,38 -1026,-386 -1315,-558 -2295,-105 898,-55 1762,48 2579,440 310,149 663,267 786,262 122,-5 186,57 142,138 -51,92 -242,68 -514,-64 -311,-152 -474,-166 -579,-49 -105,117 -82,160 83,153 126,-5 274,61 329,147 65,101 8,131 -163,84 -1211,-329 -2591,-451 -3817,-338 -1180,108 -1284,98 -1049,-104 249,-213 243,-221 -114,-142 -207,45 -345,26 -307,-43 38,-69 -59,-121 -217,-115 -158,6 -284,80 -282,164 3,84 68,109 145,56 77,-53 125,-10 108,95 -17,106 51,171 151,146 101,-26 146,21 100,104 -46,83 -174,155 -284,159 -110,4 -198,77 -195,161 3,84 -60,115 -139,68 -79,-46 -376,112 -571,284 -196,172 -433,315 -528,319 -95,4 -248,107 -339,230 -242,325 -1,258 621,-173 618,-428 866,-494 622,-165 -585,786 -682,325 -920,574 -267,279 -340,300 -450,130 -464,173 -441,80 -1462,1247 -320,370 -586,604 -591,521 z M 4006,2832 c -248,-75 -1830,841 -1689,977 44,42 458,-138 920,-400 463,-262 848,-553 769,-577 z m 5373,-251 c -2,-68 -209,-166 -460,-216 -251,-51 -551,-112 -666,-136 -436,-92 -2668,64 -2885,201 -153,97 130,126 880,91 1342,-63 2679,46 2796,227 96,149 342,26 335,-167 z m 1147,2938 c -794,-455 -1265,-772 -1156,-776 214,-8 1638,713 1642,831 5,155 -151,137 -486,-56 z m -5785,56 c 91,-123 229,-226 305,-229 78,-3 66,93 -27,217 -91,123 -229,226 -305,229 -78,3 -66,-93 27,-218 z m 1239,-465 c -1,-30 154,-92 344,-138 190,-45 347,-27 350,42 2,68 -152,130 -344,138 -191,8 -349,-11 -350,-42 z m 3402,-649 c -150,-50 -212,-132 -139,-183 140,-98 584,98 475,210 -35,35 -186,24 -336,-26 z M 3799,4118 c 140,-296 727,-640 920,-531 64,36 146,-73 183,-241 36,-168 75,-310 85,-314 10,-5 370,-57 801,-116 502,-69 819,-51 884,50 69,107 -24,138 -295,97 -549,-83 -1297,111 -1289,333 8,224 -340,421 -919,519 -93,16 -134,114 -91,218 43,106 -87,249 -202,254 -160,6 -177,-55 -76,-270 z m 6887,-1101 c 45,-50 165,-60 266,-22 113,42 81,77 -81,90 -146,12 -230,-19 -185,-69 z M 9204,1503 c -195,-106 -527,-188 -738,-182 -211,5 -385,-62 -388,-151 -3,-94 -150,-126 -354,-78 -192,46 -377,39 -412,-14 -35,-54 -488,-65 -1008,-24 -547,43 -1204,77 -1047,7 150,-67 1295,-210 2089,-252 1202,-63 1418,-42 1292,126 -121,162 -46,220 379,295 291,51 570,82 620,69 50,-13 129,71 176,185 107,262 -147,270 -609,19 z m -6614,326 c -2,-50 155,-161 349,-245 214,-94 383,-274 319,-374 -58,-89 -45,-128 27,-85 734,79 1969,-963 2139,-598 192,185 138,215 -1383,787 -492,185 -1075,440 -1207,499 -132,58 -242,65 -243,15 z M 5585,548 c -28,-266 22,-294 416,-231 1141,183 1584,158 1415,-105 -45,-69 10,-210 50,-211 40,-2 354,167 439,317 145,257 98,275 -829,315 -540,23 -1089,82 -1220,130 -170,63 -247,2 -270,-214 z"
           class="fil0"
           inkscape:connector-curvature="0"
           style="fill:#04a34f;fill-opacity:1;stroke:#d7b15f;stroke-opacity:1" />
      </g>
    </g>
  </g>
</svg>
